<?xml version="1.0" encoding="UTF-8" standalone="no"?>
<!-- Copyright 2017 mathsisfun.com -->
<svg xmlns="http://www.w3.org/2000/svg" width="340.6" height="112.4" version="1.1">
<defs>
<marker id="id1" style="overflow:visible;" orient="auto">
<path transform="scale(0.8) rotate(180) translate(12.5,0)" style="fill:#0000ff; stroke:#0000ff; stroke-width:1pt;" d="M 0,0 L 5,-5 L -12.5,0 L 5,5 L 0,0 z "/>
</marker>
<marker id="id2" style="overflow:visible;" orient="auto">
<path transform="matrix(0.4,0,0,0.4,4,0)" style="fill:#0197fd; stroke:#0197fd; stroke-width:1pt;" d="M 0,0 5,-5 -12.5,0 5,5 Z"/>
</marker>
<marker id="id3" style="overflow:visible;" orient="auto">
<path transform="matrix(0.4,0,0,0.4,4,0)" style="fill:#986601; stroke:#986601; stroke-width:1pt;" d="M 0,0 5,-5 -12.5,0 5,5 Z"/>
</marker>
</defs>
<g transform="translate(-274.242,-764.811)">
<circle cx="510.9" cy="815.9" r="13.643" style="overflow:visible; fill:#0197fd; fill-opacity:0.4; stroke-width:1.62; stroke-linecap:round;"/>
<circle cx="444.8" cy="815.9" r="13.643" style="overflow:visible; fill:#986601; fill-opacity:0.25; stroke-width:1.62; stroke-linecap:round;"/>
<path style="fill:none; fill-opacity:0.75; stroke:black; stroke-width:1.05;" d="m 311.1,774.3 v 25.6"/>
<path style="fill:none; fill-opacity:0.75; stroke:#0000ff; stroke-width:0.35px;" d="m 377.8,774.3 v 25.6"/>
<path style="fill:none; fill-opacity:0.75; stroke:#0000ff; stroke-width:0.35px;" d="m 444.4,774.3 v 25.6"/>
<text x="373.6" y="820.9" style="font-family:Arial; font-size:16.8px; overflow:visible; fill:#0000ff; stroke-width:0.35px;">1</text>
<text x="439.9" y="820.9" style="font-family:Arial; font-size:16.8px; overflow:visible; fill:#0000ff; stroke-width:0.35px;">2</text>
<text x="506.5" y="820.8" style="font-family:Arial; font-size:16.8px; overflow:visible; fill:#0000ff; stroke-width:0.35px;">3</text>
<path style="fill:none; fill-opacity:0.75; stroke:#0000ff; stroke-width:0.35px;" d="m 577.7,774.3 v 25.6"/>
<text x="567.9" y="820.8" style="font-family:Arial; font-size:16.8px; overflow:visible; fill:#0000ff; stroke-width:0.35px;">4</text>
<path style="marker-end:url(#id1); fill:none; fill-opacity:0.75; stroke:#0000ff; stroke-width:1.33;" d="M 310.4,788.7 H 612.3"/>
<path style="fill:#ff0000; fill-opacity:0.75; stroke:#ff0000; stroke-width:1.33;" d="m 274.2,788.7 h 36.7"/>
<text x="304.3" y="822.4" style="font-family:Arial; font-size:24.4px; overflow:visible; fill:black; stroke-width:0.35px;">0</text>
<ellipse cx="463.6" cy="788.6" rx="2.5" ry="2.6" style="overflow:visible; fill:white; stroke:#00bb00; stroke-width:1.3;"/>
<text x="465.7" y="779.7" style="font-family:'Comic Sans MS'; text-align:center; text-anchor:middle; font-size:19.6px; overflow:visible; fill:#00bb00; stroke-width:0.74;">2.31</text>
<path style="fill:none; fill-opacity:0.75; stroke:#0000ff; stroke-width:0.35px;" d="m 511,774.3 v 25.6"/>
<path style="marker-start:url(#id2); overflow:visible; fill:#0197fd; stroke:#0197fd; stroke-width:1.62; stroke-linecap:round;" d="m 510.9,836.6 v 21.3"/>
<text x="510.9" y="873.3" style="font-family:'Comic Sans MS'; text-align:center; text-anchor:middle; font-size:14px; overflow:visible; fill:#0197fd; stroke-width:1.62; stroke-linecap:round;">Ceiling</text>
<path style="marker-start:url(#id3); overflow:visible; fill:#986601; stroke:#986601; stroke-width:1.62; stroke-linecap:round;" d="m 444.8,836.6 v 21.3"/>
<text x="444.4" y="873.3" style="font-family:'Comic Sans MS'; text-align:center; text-anchor:middle; font-size:14px; overflow:visible; fill:#986601; stroke-width:1.62; stroke-linecap:round;">Floor</text>
</g>
</svg>
